<svg width="84" height="84" viewBox="0 0 84 84" fill="none" xmlns="http://www.w3.org/2000/svg">
<g id="Play">
<path id="Oval" fill-rule="evenodd" clip-rule="evenodd" d="M42 84C65.196 84 84 65.196 84 42C84 18.804 65.196 0 42 0C18.804 0 0 18.804 0 42C0 65.196 18.804 84 42 84Z" fill="#00D0B0"/>
<g id="button-play">
<path id="Path" d="M48.5979 41.7053L35.7446 34.5926C35.637 34.533 35.5051 34.5337 35.3982 34.5944C35.2913 34.655 35.2255 34.7666 35.2256 34.8872V49.1127C35.2255 49.2333 35.2913 49.3449 35.3982 49.4056C35.5051 49.4663 35.637 49.4669 35.7446 49.4074L48.5979 42.2946C48.7067 42.2345 48.774 42.1219 48.774 42C48.774 41.878 48.7067 41.7654 48.5979 41.7053Z" fill="white"/>
</g>
</g>
</svg>
